<?xml version="1.0" standalone="no"?>
<!DOCTYPE svg PUBLIC "-//W3C//DTD SVG 20010904//EN"
 "http://www.w3.org/TR/2001/REC-SVG-20010904/DTD/svg10.dtd">
<svg version="1.0" xmlns="http://www.w3.org/2000/svg"
 width="500.000000pt" height="500.000000pt" viewBox="0 0 500.000000 500.000000"
 preserveAspectRatio="xMidYMid meet">
<metadata>
Created by potrace 1.14, written by Peter Selinger 2001-2017
</metadata>
<g transform="translate(0.000000,500.000000) scale(0.100000,-0.100000)"
fill="#000000" stroke="none">
<path d="M2117 4916 c-16 -13 -16 -14 5 -20 13 -3 37 -6 53 -7 43 -1 25 -6
-110 -30 -165 -30 -220 -35 -210 -19 6 10 1 11 -21 5 -16 -4 -45 -9 -64 -11
-19 -3 -41 -7 -49 -9 -7 -3 -19 -1 -25 4 -8 7 -45 -3 -111 -29 -55 -21 -120
-43 -145 -50 -25 -6 -61 -20 -80 -30 -19 -10 -65 -35 -102 -54 -37 -20 -89
-57 -115 -82 -27 -26 -78 -66 -115 -90 -36 -23 -87 -63 -112 -88 -25 -25 -47
-46 -50 -46 -15 0 33 66 77 106 58 53 45 52 -39 -1 -31 -20 -52 -30 -48 -23 4
7 -15 -12 -43 -42 -28 -30 -70 -76 -94 -102 -24 -26 -54 -66 -66 -90 -76 -151
-129 -282 -157 -393 -61 -245 -61 -689 1 -915 52 -193 136 -415 154 -408 4 2
50 43 103 93 97 90 124 111 132 102 4 -4 13 -47 36 -186 5 -35 8 -80 5 -99 -5
-28 -3 -33 9 -28 9 3 27 9 40 12 22 6 24 3 24 -28 0 -37 30 -75 49 -63 7 4 11
-16 11 -59 0 -74 2 -75 71 -50 24 9 65 22 92 29 42 12 48 11 57 -3 9 -16 9
-16 10 1 0 9 3 17 7 17 3 0 15 -8 26 -17 19 -17 19 -17 12 5 -6 21 -4 23 17
20 15 -2 33 -20 55 -58 33 -54 40 -52 35 12 -1 11 3 15 13 12 10 -4 15 0 15
13 0 20 33 25 60 8 8 -5 11 -4 7 2 -4 6 3 11 16 12 12 0 41 1 65 2 23 1 45 5
48 10 3 5 10 7 15 4 5 -4 9 -1 9 4 0 6 8 10 18 9 9 -1 26 0 37 1 16 1 17 3 5
11 -9 5 -19 5 -26 -1 -8 -7 -14 -6 -19 1 -3 5 -15 10 -26 10 -23 0 -43 43 -35
75 3 11 22 40 42 63 l36 43 23 -49 c12 -27 37 -59 55 -72 32 -23 33 -23 86 -6
29 9 74 26 99 37 43 19 45 22 45 61 0 23 -5 56 -12 75 -6 18 -9 35 -5 39 9 10
113 -43 150 -77 30 -28 47 -36 47 -23 0 3 -10 14 -22 24 l-23 19 25 -5 c23 -5
23 -4 -5 13 -16 9 -34 16 -38 15 -4 -1 -3 6 3 17 17 32 13 42 -15 31 -27 -10
-38 -1 -29 24 4 11 -2 19 -21 26 -36 14 -45 13 -45 -5 0 -16 -25 -21 -34 -6
-10 15 -67 19 -73 4 -7 -19 -23 -16 -23 4 0 13 -3 14 -11 6 -6 -6 -18 -9 -25
-6 -8 3 -14 0 -14 -7 0 -6 -4 -8 -10 -5 -5 3 -10 2 -10 -4 0 -5 -15 -13 -32
-16 -18 -4 -36 -12 -39 -18 -4 -5 -14 -7 -24 -4 -9 4 -13 11 -10 17 19 31 172
78 208 64 10 -3 17 -1 17 5 0 38 -233 -21 -263 -66 -4 -6 -21 -15 -39 -18 -17
-4 -40 -16 -52 -26 -11 -11 -23 -16 -27 -12 -19 21 -50 88 -55 121 -3 20 -8
40 -11 45 -10 16 11 49 45 70 47 30 100 44 187 52 104 10 228 45 255 73 13 14
13 15 -3 3 -15 -12 -17 -12 -12 2 4 8 15 17 26 20 13 3 17 11 13 21 -4 9 -1
16 6 16 9 0 7 7 -5 20 -19 21 -90 29 -97 10 -1 -5 -30 -15 -63 -20 -64 -12
-115 -30 -234 -87 -52 -25 -75 -32 -80 -24 -6 8 -15 9 -34 2 -23 -9 -28 -7
-43 22 -10 20 -18 65 -20 121 -9 173 -10 378 -3 444 4 37 10 92 13 122 12 104
19 145 26 155 5 6 11 33 15 60 4 28 13 60 21 72 8 12 14 27 14 33 0 6 7 22 17
36 9 14 17 39 18 55 3 37 32 61 57 48 14 -7 18 -6 18 6 0 10 5 13 11 9 8 -5
10 2 6 22 -5 27 -3 27 34 -16 48 -56 123 -162 167 -236 36 -62 38 -68 20 -59
-7 4 -1 -4 15 -17 15 -13 27 -30 27 -37 0 -19 40 -72 50 -66 10 6 32 -30 23
-38 -3 -4 6 -20 21 -37 14 -17 26 -26 26 -20 0 6 4 9 10 5 5 -3 7 -11 4 -19
-3 -7 20 -44 51 -82 30 -38 55 -72 55 -75 0 -3 51 -51 112 -105 163 -143 169
-148 162 -130 -3 9 -10 16 -15 16 -5 0 -9 5 -9 12 0 7 17 -4 38 -24 20 -19 43
-33 50 -31 6 3 12 -1 12 -8 0 -7 3 -9 7 -6 4 4 20 -5 37 -20 l29 -28 -22 35
-23 35 38 -40 c22 -23 54 -60 73 -83 19 -23 37 -40 39 -37 3 2 -1 11 -8 20
-17 20 -7 30 12 12 16 -17 60 -15 66 2 3 9 7 9 18 0 19 -16 18 -6 -6 36 -26
46 -25 54 1 24 l22 -24 -6 23 c-5 23 -5 23 14 6 28 -26 36 -8 9 21 -24 25 -16
36 9 13 11 -10 13 -10 7 0 -11 18 5 15 21 -5 13 -17 13 -17 5 2 -18 38 -8 65
32 86 23 12 46 17 58 13 15 -4 18 -3 13 6 -6 9 -2 9 16 0 66 -34 75 -68 30
-109 -55 -49 -65 -56 -77 -53 -7 1 -15 -7 -19 -18 -4 -11 -11 -17 -17 -14 -6
4 -8 -1 -4 -14 4 -13 1 -22 -9 -26 -9 -3 -15 -11 -14 -18 1 -7 -2 -24 -8 -38
-22 -55 -24 -79 -6 -89 10 -6 12 -11 6 -11 -15 0 -18 -70 -3 -70 6 0 10 -7 10
-15 0 -22 18 -18 31 6 8 17 8 20 -1 14 -8 -5 -10 -2 -7 11 4 11 11 40 18 67 6
26 15 50 20 53 4 2 19 -12 32 -33 42 -67 49 -69 130 -49 40 10 87 25 105 32
l34 14 -5 62 c-2 35 -7 73 -11 84 -10 28 11 36 58 23 41 -11 79 -55 72 -82 -4
-15 -2 -16 10 -6 13 11 14 9 3 -14 -7 -15 -20 -29 -31 -32 -10 -4 -18 -10 -18
-15 0 -5 -14 -11 -31 -15 -29 -7 -30 -8 -14 -25 17 -19 21 -18 58 16 8 8 20 9
34 3 14 -5 23 -5 23 1 0 6 11 10 24 10 16 0 32 11 46 30 12 17 25 28 29 26 4
-3 22 3 40 11 l32 16 32 -38 c66 -80 233 -400 244 -467 3 -21 12 -43 19 -49
12 -10 14 0 15 57 1 78 12 58 23 -42 3 -32 11 -84 16 -114 5 -30 13 -136 16
-235 l7 -180 30 -20 c30 -19 53 -70 37 -80 -4 -3 -21 11 -37 30 -17 19 -32 35
-35 35 -3 0 -8 -32 -12 -71 -3 -39 -11 -79 -16 -89 -6 -10 -12 -34 -14 -52 -7
-54 -18 -88 -25 -83 -4 2 -8 -1 -9 -8 -7 -61 -24 -116 -38 -128 -8 -6 -14 -17
-14 -24 0 -14 -27 -28 -40 -20 -7 4 -21 -31 -24 -60 -1 -5 -12 -32 -24 -60
-13 -27 -25 -60 -26 -72 -2 -13 -10 -31 -19 -41 -9 -10 -24 -36 -33 -57 -9
-22 -45 -83 -80 -136 -52 -79 -78 -107 -141 -155 -88 -64 -107 -81 -78 -66 15
7 25 6 39 -4 24 -17 29 -54 7 -55 -10 0 -11 -2 -4 -6 7 -2 14 -3 16 -1 2 2 12
-5 22 -15 12 -13 15 -21 7 -26 -17 -10 -3 -48 21 -55 12 -3 25 0 29 7 4 7 8 7
8 2 0 -6 -4 -15 -10 -21 -12 -12 -1 -55 14 -53 27 3 37 -2 35 -18 -3 -22 11
-55 25 -65 7 -5 4 -8 -6 -8 -25 0 -22 -12 7 -34 18 -14 24 -25 19 -39 -5 -16
-3 -19 10 -14 10 4 15 3 12 -2 -3 -5 0 -13 7 -19 18 -16 75 14 79 41 2 12 8
22 15 22 6 0 15 4 20 8 4 5 1 7 -7 5 -11 -2 -14 4 -12 22 1 14 7 26 12 28 6 2
10 10 10 18 0 9 4 13 9 10 4 -3 16 3 26 14 10 11 24 20 31 20 9 0 13 11 12 33
-3 59 2 85 18 101 22 22 41 20 21 -2 -10 -10 -17 -23 -17 -28 0 -5 5 -2 11 6
9 12 10 10 6 -8 -4 -18 -2 -22 11 -18 15 5 17 -2 16 -54 -1 -33 3 -57 7 -54 5
3 6 16 3 29 -3 12 -1 26 5 29 7 5 11 -8 11 -36 0 -24 2 -115 4 -203 3 -88 5
-179 5 -202 l1 -42 301 -1 c166 0 331 5 367 10 194 30 369 186 426 379 21 73
20 119 -4 159 -12 19 -48 100 -82 180 -33 81 -64 152 -69 158 -18 22 -66 149
-62 164 4 13 3 13 -6 0 -8 -12 -12 -9 -20 13 -6 16 -11 33 -11 39 0 16 -41
100 -56 116 -7 6 -16 21 -19 32 -4 11 -11 17 -17 14 -6 -4 -8 -1 -6 7 3 8 -1
21 -8 30 -8 9 -24 56 -36 105 -12 49 -34 109 -50 133 -15 25 -28 53 -28 63 0
31 -41 128 -66 156 l-24 27 19 -60 c24 -79 44 -165 39 -170 -2 -2 -16 25 -32
60 -15 35 -33 63 -39 62 -6 -1 -12 7 -14 18 -3 16 -2 17 6 5 20 -29 11 5 -11
40 -12 19 -25 55 -28 80 -4 25 -17 81 -28 125 -12 44 -33 132 -46 195 -13 64
-38 158 -55 210 -16 52 -33 109 -36 125 -4 17 -16 61 -28 99 -16 52 -23 64
-28 50 -5 -13 -8 -14 -8 -4 -1 17 -80 219 -80 206 -1 -4 6 -35 15 -68 16 -64
13 -88 -7 -44 -7 14 -15 26 -18 26 -3 0 -6 -34 -6 -75 0 -41 -3 -75 -7 -75 -5
0 -8 12 -8 28 -1 53 -71 269 -100 307 -9 12 -24 85 -21 104 1 7 -8 38 -20 69
l-22 55 -19 -23 c-24 -30 -23 -57 7 -137 49 -129 19 -97 -34 37 -67 168 -129
293 -141 285 -6 -3 -10 2 -10 13 0 24 -81 173 -90 167 -9 -6 -90 99 -90 116 0
6 -10 28 -22 48 l-23 36 28 -18 c15 -9 27 -15 27 -11 0 18 -76 144 -87 144 -7
0 -13 6 -13 14 0 22 -26 66 -35 58 -4 -4 -5 3 -2 16 4 17 2 22 -8 18 -7 -2
-21 5 -32 16 -10 12 -12 18 -4 13 11 -6 13 -4 8 9 -4 10 -7 24 -7 33 0 9 -6
13 -14 10 -9 -4 -13 -1 -10 7 6 17 -76 128 -176 237 -101 111 -258 233 -171
134 17 -20 31 -39 31 -43 0 -4 13 -22 29 -40 17 -17 25 -32 18 -32 -7 0 -52
47 -102 105 -80 94 -189 194 -212 196 -4 0 -19 14 -33 32 l-25 32 40 -25 c22
-13 56 -34 75 -47 19 -13 39 -23 44 -23 4 0 34 -15 65 -34 31 -19 71 -37 88
-41 18 -3 35 -11 38 -16 9 -14 25 -11 25 5 0 8 -7 17 -15 20 -9 3 -22 21 -30
40 -12 27 -34 46 -114 92 -56 32 -97 63 -95 69 5 11 -52 33 -164 64 -24 7 -42
15 -39 17 5 5 125 -12 154 -23 16 -5 16 -4 3 10 -8 8 -55 32 -105 53 -91 38
-120 54 -96 54 7 0 9 5 6 10 -4 6 7 10 27 10 32 1 31 2 -17 21 -114 45 -365
67 -408 35z m287 -221 c125 -56 128 -58 126 -69 -1 -4 17 -28 41 -52 23 -24
41 -46 38 -48 -2 -2 -35 22 -73 55 -39 32 -113 81 -165 109 -120 62 -101 65
33 5z m213 -11 c-3 -3 -12 -4 -19 -1 -8 3 -5 6 6 6 11 1 17 -2 13 -5z m97 -28
c52 -21 53 -37 1 -20 -25 9 -47 20 -51 25 -8 13 12 11 50 -5z m-149 -16 c3 -6
-1 -7 -9 -4 -18 7 -21 14 -7 14 6 0 13 -4 16 -10z m95 -94 c0 -5 -6 -4 -12 1
-72 54 -74 56 -49 48 18 -5 22 -4 16 6 -4 8 4 1 19 -16 14 -16 25 -34 26 -39z
m247 -13 c-7 -6 -46 10 -41 18 3 5 14 3 24 -3 11 -7 18 -13 17 -15z m467 -982
c3 -5 15 -7 25 -4 13 3 23 -3 32 -19 l12 -23 -24 20 c-13 11 -18 13 -11 5 17
-20 15 -30 -5 -30 -15 0 -16 -2 -3 -10 13 -8 13 -10 -2 -10 -16 0 -68 53 -68
71 0 12 37 12 44 0z m66 -71 c0 -5 -2 -10 -4 -10 -3 0 -8 5 -11 10 -3 6 -1 10
4 10 6 0 11 -4 11 -10z m-5 -30 c3 -5 12 -7 20 -4 8 3 19 -4 26 -18 12 -23 12
-23 -10 -4 -11 11 -21 14 -21 8 0 -12 11 -23 44 -46 26 -17 9 -25 -32 -14 -27
7 -31 12 -26 32 4 16 1 25 -10 29 -9 4 -16 11 -16 17 0 13 17 13 25 0z m-709
-66 c-3 -9 -2 -12 5 -9 6 4 19 -1 30 -11 14 -13 16 -20 8 -31 -15 -17 -27 -17
-46 2 -14 15 -12 65 3 65 3 0 3 -7 0 -16z m839 -4 c3 -5 2 -10 -4 -10 -5 0
-13 5 -16 10 -3 6 -2 10 4 10 5 0 13 -4 16 -10z m7 -74 c10 -11 18 -25 17 -31
0 -5 -9 2 -19 17 -14 18 -26 24 -40 21 -11 -3 -28 -2 -37 2 -17 7 -16 8 2 15
27 11 56 2 77 -24z m-17 -16 c7 -12 -2 -12 -30 0 -19 8 -19 9 2 9 12 1 25 -3
28 -9z m65 -20 c0 -5 -4 -10 -10 -10 -5 0 -10 5 -10 10 0 6 5 10 10 10 6 0 10
-4 10 -10z m-51 -10 c5 0 23 -24 42 -52 18 -29 37 -59 42 -65 4 -8 4 -13 -2
-13 -5 0 -22 20 -38 45 -15 24 -33 44 -39 45 -7 0 -20 12 -29 27 -16 24 -16
26 0 20 9 -4 20 -7 24 -7z m-562 -245 c0 -9 -6 -14 -14 -11 -8 3 -16 -1 -19
-9 -4 -8 -11 -12 -16 -9 -7 5 35 43 48 44 0 0 1 -7 1 -15z m-277 -38 c0 -6 -9
-2 -20 8 -11 10 -20 23 -20 28 0 6 9 2 20 -8 11 -10 20 -23 20 -28z m200 -37
c0 -5 -4 -10 -10 -10 -5 0 -10 5 -10 10 0 6 5 10 10 10 6 0 10 -4 10 -10z
m141 0 c28 0 23 -19 -7 -31 -31 -11 -29 -12 -39 20 -6 20 -4 23 10 18 9 -4 25
-7 36 -7z m-41 -75 c0 -8 -4 -15 -10 -15 -5 0 -10 7 -10 15 0 8 5 15 10 15 6
0 10 -7 10 -15z m-140 -9 c0 -3 -4 -8 -10 -11 -5 -3 -10 -1 -10 4 0 6 5 11 10
11 6 0 10 -2 10 -4z m1102 -253 c2 -35 1 -63 -3 -63 -11 0 -29 84 -29 132 1
42 1 42 14 18 8 -14 16 -53 18 -87z m82 -63 c5 -17 4 -20 -2 -10 -5 8 -13 26
-16 40 -5 17 -4 20 2 10 5 -8 13 -26 16 -40z m-2344 26 c0 -2 3 -12 7 -22 5
-12 3 -15 -6 -9 -8 4 -17 2 -22 -6 -6 -11 -11 -11 -20 -2 -9 9 -9 16 1 28 11
13 40 21 40 11z m130 -37 c0 -6 7 -8 16 -5 24 9 47 -13 33 -30 -15 -18 -43
-18 -59 1 -7 8 -19 15 -26 15 -20 0 -17 18 4 23 29 8 32 7 32 -4z m2123 -5
c11 -11 -3 -24 -18 -18 -8 4 -12 10 -9 15 6 11 18 12 27 3z m-2123 -85 c0 -12
-27 -11 -35 1 -11 17 5 32 21 19 8 -6 14 -15 14 -20z m2173 1 c3 -11 1 -23 -4
-26 -5 -3 -9 6 -9 20 0 31 6 34 13 6z m-2918 -117 c-1 -38 -6 -77 -10 -87 -8
-19 -9 -19 -16 0 -11 28 -11 146 0 139 5 -3 12 -1 16 5 11 18 12 11 10 -57z
m319 -142 c-7 -7 -34 28 -34 43 1 6 10 0 21 -13 11 -13 17 -27 13 -30z m2506
-584 c0 -5 -10 -7 -22 -5 -15 2 -24 11 -26 27 -4 23 -4 23 22 5 14 -11 26 -23
26 -27z m-159 -994 c-8 -15 -10 -15 -11 -2 0 17 10 32 18 25 2 -3 -1 -13 -7
-23z m82 -88 c-3 -9 -8 -14 -10 -11 -3 3 -2 9 2 15 9 16 15 13 8 -4z m1055
-141 c-4 -3 -12 5 -18 18 -12 22 -12 22 6 6 10 -10 15 -20 12 -24z"/>
<path d="M2935 4425 c28 -14 70 -43 95 -66 25 -22 59 -47 75 -56 17 -9 55 -36
85 -61 30 -26 46 -36 35 -23 -11 13 -51 47 -90 76 -38 29 -79 62 -90 75 -21
23 -93 63 -135 74 -14 4 -2 -5 25 -19z"/>
<path d="M3080 4381 c0 -5 7 -15 17 -22 15 -13 15 -12 4 9 -12 23 -21 28 -21
13z"/>
<path d="M3130 4326 c0 -2 8 -10 18 -17 15 -13 16 -12 3 4 -13 16 -21 21 -21
13z"/>
<path d="M3180 4314 c0 -17 59 -80 60 -63 0 8 -13 28 -30 44 -16 16 -30 24
-30 19z"/>
<path d="M3180 4185 c13 -14 26 -23 28 -20 7 7 -29 45 -41 45 -6 0 0 -11 13
-25z"/>
<path d="M3281 4173 c54 -90 70 -113 75 -113 6 0 5 2 -49 88 -21 34 -41 62
-44 62 -2 0 6 -17 18 -37z"/>
<path d="M3356 4128 c14 -27 30 -48 35 -48 6 0 8 -4 5 -9 -3 -4 1 -17 9 -27
20 -26 19 -39 -2 -23 -14 12 -15 12 -7 -3 5 -9 23 -31 39 -50 37 -40 79 -107
72 -114 -5 -5 -9 -1 -47 46 -17 21 -19 22 -14 5 3 -11 -4 -4 -14 15 -11 19
-29 43 -40 54 -21 18 -21 18 -18 -7 1 -14 9 -34 17 -43 10 -13 10 -15 1 -10
-7 4 -24 24 -37 44 -27 41 -81 105 -69 82 4 -8 15 -27 25 -41 11 -15 16 -35
13 -50 -4 -18 -3 -20 4 -10 8 11 17 4 41 -35 18 -27 36 -49 41 -49 4 0 12 -4
17 -9 5 -5 3 -6 -4 -2 -8 4 -13 2 -13 -5 0 -17 89 -167 105 -177 6 -4 18 -18
25 -31 9 -19 14 -21 21 -10 7 12 9 11 9 -1 0 -16 53 -128 93 -195 13 -22 36
-73 51 -112 15 -40 32 -73 37 -73 5 0 8 -3 7 -7 -1 -5 7 -34 17 -66 15 -46 21
-55 31 -45 7 7 16 30 19 51 7 34 5 39 -15 44 -14 4 -20 11 -17 23 2 10 -6 39
-19 66 -13 27 -24 56 -25 64 -1 8 -4 4 -8 -10 -5 -19 -12 -3 -30 75 -13 55
-32 124 -42 154 -10 29 -17 57 -14 61 8 12 -6 41 -16 34 -5 -3 -6 1 -3 9 3 8
-1 21 -9 28 -7 8 -12 20 -9 27 2 7 -10 42 -27 78 -24 51 -35 65 -47 60 -13 -5
-14 -3 -6 6 7 9 6 19 -4 32 -14 20 -14 20 -14 1 0 -20 -12 -3 -61 90 -12 22
-36 54 -53 70 -17 17 -41 44 -53 60 -19 26 -19 23 3 -17z m165 -379 c23 -54
40 -102 37 -105 -4 -3 -9 5 -14 18 -4 13 -23 57 -43 98 -50 102 -55 116 -37
101 8 -7 33 -57 57 -112z m26 25 c35 -76 22 -80 -16 -5 -17 34 -26 61 -21 61
6 0 23 -25 37 -56z m200 -476 c-3 -7 -5 -2 -5 12 0 14 2 19 5 13 2 -7 2 -19 0
-25z"/>
<path d="M3275 4120 c10 -11 20 -18 23 -15 7 6 -18 35 -31 35 -5 0 -2 -9 8
-20z"/>
<path d="M3500 3598 c0 -9 5 -20 10 -23 13 -8 13 5 0 25 -8 13 -10 13 -10 -2z"/>
<path d="M3705 3505 c11 -55 26 -107 30 -104 6 7 -14 99 -25 117 -9 14 -10 11
-5 -13z"/>
<path d="M3870 3155 c0 -17 53 -165 58 -160 5 5 -34 135 -48 155 -5 8 -10 11
-10 5z"/>
<path d="M2630 2978 c0 -3 11 -18 25 -34 14 -16 25 -24 25 -18 0 6 -11 21 -25
34 -14 13 -25 21 -25 18z"/>
<path d="M3203 2793 c-19 -7 -16 -20 6 -26 19 -5 41 9 41 25 0 9 -27 9 -47 1z"/>
<path d="M3140 2760 c-8 -5 -10 -10 -5 -10 6 0 17 5 25 10 8 5 11 10 5 10 -5
0 -17 -5 -25 -10z"/>
<path d="M1972 2651 c4 -13 18 -16 19 -4 0 4 -5 9 -11 12 -7 2 -11 -2 -8 -8z"/>
<path d="M1870 2310 c0 -13 11 -13 30 0 12 8 11 10 -7 10 -13 0 -23 -4 -23
-10z"/>
<path d="M1796 2292 c-3 -5 1 -9 9 -9 8 0 15 4 15 9 0 4 -4 8 -9 8 -6 0 -12
-4 -15 -8z"/>
<path d="M1466 2104 c2 -21 8 -42 13 -48 4 -6 7 -22 6 -36 -1 -14 3 -31 9 -39
7 -9 0 -7 -19 4 l-30 19 22 -25 c30 -33 38 -60 63 -207 l22 -123 -26 -49 c-14
-27 -23 -56 -20 -65 3 -8 2 -15 -4 -15 -6 0 -13 6 -15 13 -4 9 -6 9 -6 0 -1
-15 36 -36 49 -28 6 3 10 2 10 -3 0 -6 7 -13 16 -16 14 -5 15 -4 4 9 -12 15 0
22 14 8 3 -4 15 -7 25 -8 35 -3 21 96 -38 257 -12 32 -26 101 -32 155 -11 98
-43 218 -59 228 -5 3 -7 -11 -4 -31z"/>
<path d="M1320 2085 c0 -15 18 -40 24 -34 3 3 -1 14 -9 25 -8 10 -14 15 -15 9z"/>
<path d="M1450 2036 c0 -2 8 -10 18 -17 15 -13 16 -12 3 4 -13 16 -21 21 -21
13z"/>
<path d="M1332 2010 c-18 -4 -36 -11 -39 -14 -7 -7 45 2 87 15 35 10 -3 10
-48 -1z"/>
<path d="M2924 1945 c-22 -53 -19 -68 12 -61 65 17 92 55 57 82 -31 23 -53 16
-69 -21z"/>
<path d="M2700 1881 c-10 -21 -14 -71 -5 -71 13 0 84 41 91 51 9 15 -23 39
-53 39 -12 0 -27 -9 -33 -19z"/>
<path d="M4380 1841 c5 -11 15 -23 21 -27 6 -3 3 5 -6 20 -20 30 -30 35 -15 7z"/>
<path d="M1280 1699 c-44 -24 -62 -29 -90 -24 -32 6 -34 5 -19 -10 13 -13 14
-25 8 -63 -8 -41 -6 -50 16 -85 31 -45 124 -257 167 -377 27 -78 30 -96 31
-230 1 -80 -2 -172 -7 -205 -9 -67 -9 -68 -7 -179 0 -44 3 -77 5 -75 6 5 28
379 27 447 -1 67 11 61 49 -22 15 -33 53 -98 84 -143 59 -87 73 -119 30 -68
-20 24 -23 25 -14 7 7 -13 26 -40 44 -60 18 -21 50 -64 70 -97 64 -102 81
-125 90 -125 6 0 41 -32 78 -71 49 -51 65 -63 58 -43 -15 39 -6 40 21 2 12
-18 33 -43 46 -54 12 -12 23 -27 23 -34 0 -7 40 -53 90 -101 l89 -89 443 1
c420 0 442 1 418 17 -32 23 -128 103 -275 232 -67 58 -145 124 -175 147 -225
174 -287 225 -373 310 -66 66 -95 102 -92 113 6 17 -41 66 -94 98 -105 64
-236 182 -334 302 -33 41 -71 86 -84 100 -29 31 -46 53 -103 130 l-44 60 -46
-45 c-41 -40 -90 -60 -90 -37 0 5 -9 19 -20 32 -11 13 -20 31 -20 41 0 20 34
84 63 116 15 17 17 25 7 43 -6 12 -9 33 -6 46 8 30 3 30 -64 -7z m-20 -108 c0
-6 -4 -13 -10 -16 -5 -3 -10 1 -10 9 0 9 5 16 10 16 6 0 10 -4 10 -9z m135
-341 c3 -5 1 -10 -4 -10 -6 0 -11 5 -11 10 0 6 2 10 4 10 3 0 8 -4 11 -10z
m25 -251 c0 -6 -4 -7 -10 -4 -5 3 -10 11 -10 16 0 6 5 7 10 4 6 -3 10 -11 10
-16z"/>
<path d="M3094 1609 c-8 -14 -130 -69 -152 -69 -10 0 -26 -7 -36 -15 -11 -8
-28 -15 -38 -15 -15 0 -41 -24 -135 -126 -15 -17 -52 -46 -80 -64 -29 -18 -53
-35 -53 -37 0 -2 17 -3 38 -3 29 0 51 10 93 41 73 56 142 86 214 95 42 4 90
22 160 56 92 45 105 49 165 47 71 -2 94 4 128 34 27 25 30 52 5 42 -24 -9 -63
-18 -88 -18 -38 -2 -195 26 -195 35 0 12 -18 10 -26 -3z"/>
<path d="M4585 1485 c4 -27 15 -66 26 -85 l18 -35 1 36 c0 43 -17 98 -37 119
-14 13 -14 9 -8 -35z"/>
<path d="M2120 810 c0 -5 7 -10 16 -10 8 0 12 5 9 10 -3 6 -10 10 -16 10 -5 0
-9 -4 -9 -10z"/>
<path d="M3417 506 c-4 -10 -1 -13 9 -9 7 3 14 9 14 14 0 14 -17 10 -23 -5z"/>
<path d="M3480 434 c0 -8 5 -12 10 -9 6 3 10 10 10 16 0 5 -4 9 -10 9 -5 0
-10 -7 -10 -16z"/>
<path d="M1384 408 c-9 -13 -13 -275 -6 -361 3 -31 9 -47 18 -47 11 0 13 35 7
208 -3 114 -7 208 -8 210 -2 2 -7 -3 -11 -10z"/>
<path d="M3720 400 c-11 -11 -20 -26 -19 -32 0 -10 2 -10 6 0 9 23 20 12 15
-15 -2 -16 -2 -25 2 -22 4 4 8 20 11 37 2 17 6 36 10 42 10 17 -4 11 -25 -10z"/>
<path d="M3762 407 c-6 -7 -7 -19 -3 -26 6 -9 10 -5 13 13 6 30 5 31 -10 13z"/>
<path d="M3846 383 c-6 -14 -5 -15 5 -6 7 7 10 15 7 18 -3 3 -9 -2 -12 -12z"/>
<path d="M3520 310 c-12 -8 -11 -10 8 -10 12 0 22 5 22 10 0 13 -11 13 -30 0z"/>
<path d="M3670 251 c0 -6 4 -12 8 -15 5 -3 9 1 9 9 0 8 -4 15 -9 15 -4 0 -8
-4 -8 -9z"/>
<path d="M3646 223 c-6 -14 -5 -15 5 -6 7 7 10 15 7 18 -3 3 -9 -2 -12 -12z"/>
<path d="M1920 123 c0 -11 39 -73 45 -73 3 0 -4 18 -15 40 -19 38 -30 49 -30
33z"/>
</g>
</svg>
